<svg xmlns="http://www.w3.org/2000/svg" width="55" height="76" fill="none"><path fill="#DCBCFA" fill-opacity=".35" d="m39.326 47-1.912-2.945 1.232-.8L40.56 46.2z"/><path fill="#FF21FB" fill-opacity=".65" d="m43.326 16 1.624 8.355-3.406.663-1.624-8.356z"/><circle cx="15.366" cy="49.04" r="1.04" fill="#480CA7" fill-opacity=".45"/><circle cx="38.866" cy="52.54" r=".54" fill="#4BC8EF" fill-opacity=".65"/><circle cx="24.866" cy="43.54" r="1.54" fill="#FC9E1C" fill-opacity=".65"/><circle cx="44.866" cy="46.54" r="1.54" fill="#9AF5FC" fill-opacity=".9"/><path fill="#755FFE" fill-opacity=".45" d="m45.342 18.79 2.226-.195.195 2.226-2.226.195-.195-2.226Z"/><path fill="#755FFE" fill-opacity=".35" d="m42.18.944.909 2.798-2.798.909-.91-2.798L42.18.944Z"/><path fill="#C9FCBE" fill-opacity=".75" d="m19.544 5.069-2.915 2.117-.377-3.583 3.292 1.466Z"/><path fill="#4BC8EF" d="m17.71 74.691-.746-1.942 1.31-1.616 2.054.325.745 1.942-1.309 1.616-2.054-.325Z"/><path fill="#755FFE" fill-opacity=".9" d="m45.906 23 1.369 2.37h-2.737L45.906 23Z"/><path fill="#FC9E1C" fill-opacity=".9" d="m52.077 44.223 1.527-.026.026 1.527-1.527.026-.026-1.527Z"/><path fill="#480CA7" d="m23.398 12.819.692 1.463 1.562.428-1.464.691-.427 1.562-.692-1.464-1.561-.427 1.463-.692.427-1.561Z"/><path fill="#F54721" fill-opacity=".75" d="m4.05 54.163-.416 1.453 1.253.845-1.51.053-.417 1.452-.517-1.42-1.51.053 1.19-.93-.516-1.42 1.253.844 1.19-.93Z"/><path fill="#9AF5FC" fill-opacity=".9" d="m44.754 20.916-.722-.208-.232.715-.18-.73-.736.158.542-.522-.504-.558.722.208.232-.715.18.73.736-.157-.542.521.504.558Z"/></svg>